<svg xmlns="http://www.w3.org/2000/svg" x="0px" y="0px" width="100" height="100" viewBox="0,0,256,256">
<defs><linearGradient x1="14.101" y1="6.854" x2="34.491" y2="42.171" gradientUnits="userSpaceOnUse" id="color-1_Ugppt5oZIP72_gr1"><stop offset="0" stop-color="#4d4d4d"></stop><stop offset="0.736" stop-color="#4d4d4d"></stop><stop offset="1" stop-color="#4d4d4d"></stop></linearGradient></defs><g fill="none" fill-rule="nonzero" stroke="none" stroke-width="1" stroke-linecap="butt" stroke-linejoin="miter" stroke-miterlimit="10" stroke-dasharray="" stroke-dashoffset="0" font-family="none" font-weight="none" font-size="none" text-anchor="none" style="mix-blend-mode: normal"><g transform="scale(5.33333,5.33333)"><path d="M44,24c0,11.045 -8.955,20 -20,20c-11.045,0 -20,-8.955 -20,-20c0,-11.045 8.955,-20 20,-20c11.045,0 20,8.955 20,20z" fill="url(#color-1_Ugppt5oZIP72_gr1)"></path><path d="M23.518,28.977c-2.875,-0.276 -5.047,-2.998 -4.405,-6.054c0.397,-1.887 1.922,-3.413 3.809,-3.809c3.056,-0.642 5.778,1.53 6.054,4.405c0.027,0.268 0.234,0.481 0.505,0.481h1.804c0.477,0 0.717,-0.243 0.698,-0.532c-0.309,-4.681 -4.663,-8.275 -9.59,-7.31c-3.115,0.61 -5.625,3.12 -6.235,6.235c-0.965,4.927 2.629,9.281 7.31,9.59c0.289,0.019 0.532,-0.221 0.532,-0.511v-1.804c0,-0.458 -0.213,-0.665 -0.482,-0.691z" fill="#ffffff"></path><path d="M23.509,33.988c-5.382,-0.262 -9.66,-4.798 -9.505,-10.278c0.148,-5.213 4.493,-9.558 9.706,-9.706c5.48,-0.156 10.016,4.123 10.278,9.505c0.013,0.273 0.225,0.491 0.499,0.491h2.272c0.507,0 0.742,-0.24 0.731,-0.528c-0.298,-7.704 -7.082,-13.772 -15.033,-12.886c-6.177,0.689 -11.182,5.694 -11.871,11.871c-0.886,7.951 5.182,14.735 12.886,15.033c0.288,0.011 0.528,-0.225 0.528,-0.513v-2.273c0,-0.491 -0.218,-0.703 -0.491,-0.716z" fill="#ffffff"></path></g></g>
</svg>